# xmcd
#
# Track frame offsets:
#	150
#	13614
#	24678
#	35809
#	47955
#	61472
#	72985
#	85229
#	95157
#	105978
#	117518
#	130563
#	142364
#	153481
#	165297
#	177750
#	191232
#	204398
#	216865
#	229124
#	240788
#
# Disc length: 3367 seconds
#
# Revision: 1
# Processed by: cddbd v1.5.2PL0 Copyright (c) Steve Scherf et al.
# Submitted via: audiograbber 1.83.01
#
DISCID=2a0d2515
DTITLE=Hank Williams - The Complete, Box Set Disc 04
DYEAR=1998
DGENRE=Country
TTITLE0=I'd Still Want You
TTITLE1=(I Heard That) Lonesome Whistle
TTITLE2=Crazy Heart
TTITLE3=Half as Much
TTITLE4=I'd Still Want You
TTITLE5=Baby, We're Really in Love
TTITLE6=I'm Sorry for You, My Friend
TTITLE7=Honky Tonk Blues
TTITLE8=Let's Turn Back the Years
TTITLE9=Window Shopping
TTITLE10=Jambalaya (On The Bayou)
TTITLE11=Settin' The Woods On Fire
TTITLE12=I'll Never Get Out of This World Alive
TTITLE13=You Win Again
TTITLE14=I Won't Be Home No More
TTITLE15=Be Careful Of Stones That You Throw (Luke The Drifter)
TTITLE16=Please Make up Your Mind
TTITLE17=I Could Never Be Ashamed of You
TTITLE18=Your Cheatin' Heart
TTITLE19=Kaw Liga
TTITLE20=Take These Chains From My Heart
EXTD=
EXTT0=
EXTT1=
EXTT2=
EXTT3=
EXTT4=
EXTT5=
EXTT6=
EXTT7=
EXTT8=
EXTT9=
EXTT10=
EXTT11=
EXTT12=
EXTT13=
EXTT14=
EXTT15=
EXTT16=
EXTT17=
EXTT18=
EXTT19=
EXTT20=
PLAYORDER=
